# xmcd
#
# Track frame offsets:
#	150
#	19547
#	39919
#	58198
#	76940
#	98824
#	114109
#	132492
#	152820
#	171360
#	193766
#	212907
#	226919
#	245560
#	265890
#
# Disc length: 3777 seconds
#
# Revision: 1
# Processed by: cddbd v1.5.2PL0 Copyright (c) Steve Scherf et al.
# Submitted via: EZCDAudioConverter 7.1.7.1
#
DISCID=c60ebf0f
DTITLE=苏云 - 新龙谣（第三卷）DTS-ES6.1
DYEAR=2006
DGENRE=
TTITLE0=彩云追月
TTITLE1=月光下的风尾竹
TTITLE2=婚誓
TTITLE3=月儿弯弯照九州
TTITLE4=梁祝-化蝶
TTITLE5=曲蔓地
TTITLE6=美丽的姑娘
TTITLE7=弥渡山歌
TTITLE8=花好月圆
TTITLE9=怀念战友
TTITLE10=草原之夜
TTITLE11=林中的小路
TTITLE12=吐鲁番的葡萄熟了
TTITLE13=走西口
TTITLE14=青春小鸟
EXTD=
EXTT0=
EXTT1=
EXTT2=
EXTT3=
EXTT4=
EXTT5=
EXTT6=
EXTT7=
EXTT8=
EXTT9=
EXTT10=
EXTT11=
EXTT12=
EXTT13=
EXTT14=
PLAYORDER=
